<?xml version="1.0" standalone="no"?>
<!DOCTYPE svg PUBLIC "-//W3C//DTD SVG 20010904//EN"
 "http://www.w3.org/TR/2001/REC-SVG-20010904/DTD/svg10.dtd">
<svg version="1.0" xmlns="http://www.w3.org/2000/svg"
 width="100.000000pt" height="100.000000pt" viewBox="0 0 100.000000 100.000000"
 preserveAspectRatio="xMidYMid meet">
<metadata>
Created by potrace 1.11, written by Peter Selinger 2001-2013
</metadata>
<g transform="translate(0.000000,100.000000) scale(0.100000,-0.100000)"
fill="#000000" stroke="none">
<path d="M447 920 c-14 -11 -27 -30 -29 -43 -5 -28 17 -73 41 -86 11 -7 17
-20 16 -38 l-1 -28 -108 -3 c-88 -2 -116 -6 -146 -23 -51 -29 -74 -72 -80
-149 l-5 -65 -47 0 -48 1 0 -118 c0 -87 3 -118 13 -119 6 -1 28 -2 47 -3 l35
-1 3 -88 c3 -82 4 -87 25 -88 106 -3 680 0 684 5 3 3 6 41 6 85 1 47 5 82 11
84 6 3 28 3 49 2 l37 -3 1 74 c3 181 5 171 -38 169 -57 -2 -62 2 -62 58 0 60
-10 91 -44 129 -35 40 -71 50 -184 49 -83 0 -103 3 -104 15 -1 8 -2 20 -3 27
-1 6 11 23 26 37 41 37 44 76 8 111 -34 34 -67 37 -103 9z m77 -36 c12 -12 13
-20 5 -35 -22 -42 -69 -31 -69 16 0 35 38 46 64 19z m200 -208 c36 -7 70 -38
81 -75 6 -18 10 -381 6 -474 -1 -16 -9 -18 -58 -15 l-58 3 0 75 0 75 -193 1
c-115 1 -195 -3 -198 -8 -4 -6 -6 -41 -6 -79 l0 -69 -59 0 -59 0 0 240 c0 195
3 247 15 270 19 38 48 53 110 60 65 7 377 4 419 -4z m-586 -309 c2 -43 -1 -77
-5 -78 -4 0 -18 -2 -30 -3 -22 -3 -23 0 -23 79 l0 81 28 -2 c27 -1 27 -1 30
-77z m768 71 c5 -5 9 -98 5 -134 -1 -15 -27 -25 -44 -18 -16 6 -20 132 -6 151
10 11 33 12 45 1z m-495 -217 c1 -3 2 -30 4 -58 l2 -53 -38 0 c-42 0 -47 11
-41 80 3 33 6 36 38 37 19 0 34 -2 35 -6z m120 0 c1 -3 2 -30 3 -58 l3 -53
-39 0 c-21 0 -38 5 -39 10 0 6 -1 24 -1 40 0 67 0 67 37 67 19 0 35 -3 36 -6z
m124 -41 c2 -63 -3 -70 -41 -70 -20 0 -35 5 -35 13 -5 44 -3 93 3 98 5 3 23 5
40 5 32 -1 33 -2 33 -46z"/>
<path d="M333 555 c-70 -30 -73 -124 -5 -159 57 -29 126 14 126 79 0 62 -64
104 -121 80z m71 -54 c21 -23 8 -66 -23 -74 -44 -11 -81 49 -49 81 18 18 53
15 72 -7z"/>
<path d="M582 550 c-38 -23 -42 -31 -44 -75 -3 -78 93 -118 149 -62 71 71 -19
189 -105 137z m82 -52 c17 -24 8 -51 -25 -68 -22 -12 -42 -2 -59 30 -13 24 15
60 45 60 13 0 31 -10 39 -22z"/>
</g>
</svg>
